# Blender v2.74 (sub 0) OBJ File: 'char_cube.blend'
# www.blender.org
v -1.500000 -2.000000 -3.000000
v -1.500000 -2.000000 1.000000
v 1.500000 -2.000000 -3.000000
v 1.500000 -2.000000 1.000000
v -1.500000 -2.000000 1.000000
v 1.500000 -2.000000 1.000000
v -3.000000 -3.000000 1.000000
v 3.000000 -3.000000 1.000000
v -3.000000 -3.000000 5.000000
v 3.000000 -3.000000 5.000000
v -0.300000 -2.000000 1.000000
v -0.300000 -2.000000 -3.000000
v -0.300000 -2.000000 1.000000
v -0.600000 -3.000000 1.000000
v -0.600000 -3.000000 5.000000
v 0.314250 -2.000000 -3.000000
v 0.314250 -2.000000 1.000000
v 0.314250 -2.000000 1.000000
v 0.628500 -3.000000 1.000000
v 0.628500 -3.000000 5.000000
v -1.500000 -2.000000 0.400000
v 1.500000 -2.000000 0.400000
v -0.300000 -2.000000 0.400000
v 0.314250 -2.000000 0.400000
v 1.500000 -2.000000 -0.210000
v -0.300000 -2.000000 -0.210000
v 0.314250 -2.000000 -0.210000
v -1.500000 -2.000000 -0.210000
v -0.300000 -2.100000 0.400000
v 0.314250 -2.100000 0.400000
v -0.300000 -2.100000 -0.210000
v 0.314250 -2.100000 -0.210000
v -0.576413 -2.100000 0.400000
v 0.590663 -2.100000 0.400000
v -0.576413 -2.100000 -2.510000
v 0.590663 -2.100000 -2.510000
v -0.576413 -3.000000 0.400000
v 0.590663 -3.000000 0.400000
v -0.576413 -3.000000 -2.510000
v 0.590663 -3.000000 -2.510000
v -1.500000 -1.300000 1.000000
v -1.500000 -1.300000 -3.000000
v 1.500000 -1.300000 1.000000
v 1.500000 -1.300000 -3.000000
v -1.500000 -1.300000 1.000000
v 1.500000 -1.300000 1.000000
v -3.000000 -1.950000 1.000000
v 3.000000 -1.950000 1.000000
v -3.000000 -1.950000 5.000000
v 3.000000 -1.950000 5.000000
v -0.600000 -1.950000 5.000000
v -0.300000 -1.300000 -3.000000
v 0.628500 -1.950000 5.000000
v 0.314250 -1.300000 -3.000000
v 1.500000 -1.300000 0.400000
v -1.500000 -1.300000 0.400000
v 1.500000 -1.300000 -0.210000
v -1.500000 -1.300000 -0.210000
v -1.500000 -0.580000 1.000000
v 1.500000 -0.580000 -3.000000
v -1.500000 -0.580000 1.000000
v -3.000000 -0.970000 1.000000
v -3.000000 -0.970000 5.000000
v 1.500000 -0.580000 0.400000
v 1.500000 -0.580000 -0.210000
v -1.500000 -0.580000 -3.000000
v 1.500000 -0.580000 1.000000
v 1.500000 -0.580000 1.000000
v 3.000000 -0.970000 1.000000
v 3.000000 -0.970000 5.000000
v -0.600000 -0.970000 5.000000
v -0.300000 -0.580000 -3.000000
v 0.628500 -0.970000 5.000000
v 0.314250 -0.580000 -3.000000
v -1.500000 -0.580000 0.400000
v -1.500000 -0.580000 -0.210000
v -0.300000 -0.580000 -6.000000
v -0.300000 -1.300000 -6.000000
v 0.314250 -0.580000 -6.000000
v 0.314250 -1.300000 -6.000000
v -3.000000 -3.000000 4.000000
v 3.000000 -3.000000 4.000000
v -0.600000 -3.000000 4.000000
v 0.628500 -3.000000 4.000000
v -3.000000 -1.950000 4.000000
v 3.000000 -1.950000 4.000000
v -3.000000 -0.970000 4.000000
v 3.000000 -0.970000 4.000000
v -3.000000 -3.000000 2.950000
v 3.000000 -3.000000 2.950000
v -0.600000 -3.000000 2.950000
v 0.628500 -3.000000 2.950000
v -3.000000 -1.950000 2.950000
v 3.000000 -1.950000 2.950000
v -3.000000 -0.970000 2.950000
v 3.000000 -0.970000 2.950000
v 2.300000 -2.050000 2.950000
v 2.300000 -2.050000 4.000000
v 2.300000 -1.070000 2.950000
v 2.300000 -1.070000 4.000000
v -1.500000 2.000000 -3.000000
v -1.500000 2.000000 1.000000
v -1.500000 0.000000 -3.000000
v -1.500000 0.000000 1.000000
v 1.500000 2.000000 -3.000000
v 1.500000 2.000000 1.000000
v 1.500000 0.000000 -3.000000
v 1.500000 0.000000 1.000000
v -1.500000 2.000000 1.000000
v -1.500000 0.000000 1.000000
v 1.500000 0.000000 1.000000
v 1.500000 2.000000 1.000000
v -3.000000 3.000000 1.000000
v -3.000000 0.000000 1.000000
v 3.000000 0.000000 1.000000
v 3.000000 3.000000 1.000000
v -3.000000 3.000000 5.000000
v -3.000000 0.000000 5.000000
v 3.000000 0.000000 5.000000
v 3.000000 3.000000 5.000000
v -0.300000 0.000000 1.000000
v -0.300000 0.000000 -3.000000
v -0.300000 2.000000 1.000000
v -0.300000 2.000000 -3.000000
v -0.300000 0.000000 1.000000
v -0.300000 2.000000 1.000000
v -0.600000 0.000000 1.000000
v -0.600000 3.000000 1.000000
v -0.600000 0.000000 5.000000
v -0.600000 3.000000 5.000000
v 0.314250 0.000000 1.000000
v 0.314250 2.000000 -3.000000
v 0.314250 0.000000 1.000000
v 0.628500 0.000000 1.000000
v 0.628500 0.000000 5.000000
v 0.314250 0.000000 -3.000000
v 0.314250 2.000000 1.000000
v 0.314250 2.000000 1.000000
v 0.628500 3.000000 1.000000
v 0.628500 3.000000 5.000000
v -1.500000 2.000000 0.400000
v -1.500000 0.000000 0.400000
v 1.500000 0.000000 0.400000
v 1.500000 2.000000 0.400000
v -0.300000 2.000000 0.400000
v -0.300000 0.000000 0.400000
v 0.314250 2.000000 0.400000
v 0.314250 0.000000 0.400000
v -1.500000 0.000000 -0.210000
v 1.500000 0.000000 -0.210000
v 1.500000 2.000000 -0.210000
v -0.300000 2.000000 -0.210000
v -0.300000 0.000000 -0.210000
v 0.314250 2.000000 -0.210000
v 0.314250 0.000000 -0.210000
v -1.500000 2.000000 -0.210000
v -0.300000 2.100000 0.400000
v 0.314250 2.100000 0.400000
v -0.300000 2.100000 -0.210000
v 0.314250 2.100000 -0.210000
v -0.576413 2.100000 0.400000
v 0.590663 2.100000 0.400000
v -0.576413 2.100000 -2.510000
v 0.590663 2.100000 -2.510000
v -0.576413 3.000000 0.400000
v 0.590663 3.000000 0.400000
v -0.576413 3.000000 -2.510000
v 0.590663 3.000000 -2.510000
v -1.500000 1.300000 1.000000
v -1.500000 1.300000 -3.000000
v 1.500000 1.300000 1.000000
v 1.500000 1.300000 -3.000000
v -1.500000 1.300000 1.000000
v 1.500000 1.300000 1.000000
v -3.000000 1.950000 1.000000
v 3.000000 1.950000 1.000000
v -3.000000 1.950000 5.000000
v 3.000000 1.950000 5.000000
v -0.600000 1.950000 5.000000
v -0.300000 1.300000 -3.000000
v 0.628500 1.950000 5.000000
v 0.314250 1.300000 -3.000000
v 1.500000 1.300000 0.400000
v -1.500000 1.300000 0.400000
v 1.500000 1.300000 -0.210000
v -1.500000 1.300000 -0.210000
v -1.500000 0.580000 1.000000
v 1.500000 0.580000 -3.000000
v -1.500000 0.580000 1.000000
v -3.000000 0.970000 1.000000
v -3.000000 0.970000 5.000000
v 1.500000 0.580000 0.400000
v 1.500000 0.580000 -0.210000
v -1.500000 0.580000 -3.000000
v 1.500000 0.580000 1.000000
v 1.500000 0.580000 1.000000
v 3.000000 0.970000 1.000000
v 3.000000 0.970000 5.000000
v -0.600000 0.970000 5.000000
v -0.300000 0.580000 -3.000000
v 0.628500 0.970000 5.000000
v 0.314250 0.580000 -3.000000
v -1.500000 0.580000 0.400000
v -1.500000 0.580000 -0.210000
v -0.300000 0.580000 -6.000000
v -0.300000 1.300000 -6.000000
v 0.314250 0.580000 -6.000000
v 0.314250 1.300000 -6.000000
v -3.000000 3.000000 4.000000
v 3.000000 3.000000 4.000000
v 3.000000 0.000000 4.000000
v -3.000000 0.000000 4.000000
v -0.600000 0.000000 4.000000
v -0.600000 3.000000 4.000000
v 0.628500 0.000000 4.000000
v 0.628500 3.000000 4.000000
v -3.000000 1.950000 4.000000
v 3.000000 1.950000 4.000000
v -3.000000 0.970000 4.000000
v 3.000000 0.970000 4.000000
v -3.000000 3.000000 2.950000
v 3.000000 3.000000 2.950000
v 3.000000 0.000000 2.950000
v -3.000000 0.000000 2.950000
v -0.600000 0.000000 2.950000
v -0.600000 3.000000 2.950000
v 0.628500 0.000000 2.950000
v 0.628500 3.000000 2.950000
v -3.000000 1.950000 2.950000
v 3.000000 1.950000 2.950000
v -3.000000 0.970000 2.950000
v 3.000000 0.970000 2.950000
v 2.300000 2.050000 2.950000
v 2.300000 2.050000 4.000000
v 2.300000 1.070000 2.950000
v 2.300000 1.070000 4.000000
vt 1.000000 0.000000
vt 1.000000 1.000000
vt 0.000000 1.000000
vt 0.000000 0.000000
vn -1.000000 0.000000 0.000000
vn 1.000000 0.000000 0.000000
vn 0.000000 -1.000000 0.000000
vn 0.000000 0.000000 -1.000000
vn 0.000000 0.000000 1.000000
vn 0.000000 1.000000 0.000000
vn 0.141400 -0.989900 0.000000
vn -0.141400 0.989900 0.000000
vn 0.141400 0.989900 0.000000
vn -0.141400 -0.989900 0.000000
s off
f 149/1/1 103/2/1 66/3/1
f 25/1/2 3/2/2 44/3/2
f 28/1/3 1/2/3 12/3/3
f 136/1/4 107/2/4 60/3/4
f 4/1/5 6/2/5 18/3/5
f 6/1/4 8/2/4 19/3/4
f 108/1/5 111/2/5 68/3/5
f 2/1/5 5/2/5 45/3/5
f 82/1/3 10/2/3 20/3/3
f 68/4/4 111/1/4 115/2/4
f 5/1/4 7/2/4 47/3/4
f 129/1/5 118/2/5 63/3/5
f 211/1/2 119/2/2 70/3/2
f 81/1/1 9/2/1 49/3/1
f 135/1/5 129/2/5 71/3/5
f 83/1/3 15/2/3 9/3/3
f 5/4/4 13/1/4 14/2/4
f 11/1/5 13/2/5 5/3/5
f 103/1/4 122/2/4 72/3/4
f 26/1/3 12/2/3 16/3/3
f 27/1/3 16/2/3 3/3/3
f 119/1/5 135/2/5 73/3/5
f 84/1/3 20/2/3 15/3/3
f 18/1/4 19/2/4 14/3/4
f 17/1/5 18/2/5 13/3/5
f 122/1/4 136/2/4 74/3/4
f 17/1/3 24/2/3 22/3/3
f 11/1/3 23/2/3 24/3/3
f 2/1/3 21/2/3 23/3/3
f 4/1/2 22/2/2 55/3/2
f 104/1/1 142/2/1 75/3/1
f 24/1/3 27/2/3 25/3/3
f 27/1/4 32/2/4 31/3/4
f 21/1/3 28/2/3 26/3/3
f 22/1/2 25/2/2 57/3/2
f 142/1/1 149/2/1 76/3/1
f 32/1/6 36/2/6 35/3/6
f 24/1/2 30/2/2 32/3/2
f 26/1/1 31/2/1 29/3/1
f 23/1/5 29/2/5 30/3/5
f 36/1/4 40/2/4 39/3/4
f 32/4/6 30/1/6 34/2/6
f 31/1/6 35/2/6 33/3/6
f 30/4/4 29/1/4 33/2/4
f 37/1/3 39/2/3 40/3/3
f 34/1/2 38/2/2 40/3/2
f 35/1/1 39/2/1 37/3/1
f 33/1/5 37/2/5 38/3/5
f 56/1/1 58/2/1 28/3/1
f 55/1/2 57/2/2 65/3/2
f 41/1/1 56/2/1 21/3/1
f 43/1/2 55/2/2 64/3/2
f 52/1/4 54/2/4 16/3/4
f 50/1/5 53/2/5 20/3/5
f 42/1/4 52/2/4 12/3/4
f 53/1/5 51/2/5 15/3/5
f 85/1/1 49/2/1 63/3/1
f 86/1/2 50/2/2 10/3/2
f 51/1/5 49/2/5 9/3/5
f 45/1/4 47/2/4 62/3/4
f 6/4/4 46/1/4 48/2/4
f 41/1/5 45/2/5 61/3/5
f 43/1/5 46/2/5 6/3/5
f 54/1/4 44/2/4 3/3/4
f 57/1/2 44/2/2 60/3/2
f 58/1/1 42/2/1 1/3/1
f 65/1/2 60/2/2 107/3/2
f 59/1/5 61/2/5 110/3/5
f 61/1/4 62/2/4 114/3/4
f 87/1/1 63/2/1 118/3/1
f 67/1/2 64/2/2 143/3/2
f 64/1/2 65/2/2 150/3/2
f 75/1/1 76/2/1 58/3/1
f 59/1/1 75/2/1 56/3/1
f 74/1/6 79/2/6 77/3/6
f 70/1/5 73/2/5 53/3/5
f 66/1/4 72/2/4 52/3/4
f 73/1/5 71/2/5 51/3/5
f 88/1/2 70/2/2 50/3/2
f 71/1/5 63/2/5 49/3/5
f 46/4/4 68/1/4 69/2/4
f 67/1/5 68/2/5 46/3/5
f 74/1/4 60/2/4 44/3/4
f 76/1/1 66/2/1 42/3/1
f 77/1/4 79/2/4 80/3/4
f 52/1/3 78/2/3 80/3/3
f 54/1/2 80/2/2 79/3/2
f 72/1/1 77/2/1 78/3/1
f 94/4/5 96/1/5 99/2/5
f 95/1/1 87/2/1 212/3/1
f 94/1/2 86/2/2 82/3/2
f 93/1/1 85/2/1 87/3/1
f 92/1/3 84/2/3 83/3/3
f 91/1/3 83/2/3 81/3/3
f 89/1/1 81/2/1 85/3/1
f 223/1/2 211/2/2 88/3/2
f 90/1/3 82/2/3 84/3/3
f 8/1/3 90/2/3 92/3/3
f 115/1/2 223/2/2 96/3/2
f 7/1/1 89/2/1 93/3/1
f 14/1/3 91/2/3 89/3/3
f 19/1/3 92/2/3 91/3/3
f 47/1/1 93/2/1 95/3/1
f 48/1/2 94/2/2 90/3/2
f 62/1/1 95/2/1 224/3/1
f 69/1/2 96/2/2 94/3/2
f 99/1/2 100/2/2 98/3/2
f 86/1/4 98/2/4 100/3/4
f 88/1/7 100/2/7 99/3/7
f 94/1/8 97/2/8 98/3/8
f 194/1/1 103/4/1 149/3/1
f 136/1/3 107/4/3 150/3/3
f 172/1/2 105/4/2 151/3/2
f 124/1/6 101/4/6 156/3/6
f 188/1/4 107/4/4 136/3/4
f 138/1/5 112/4/5 106/3/5
f 139/1/4 116/4/4 112/3/4
f 196/1/5 111/4/5 108/3/5
f 125/1/5 110/4/5 104/3/5
f 173/1/5 109/4/5 102/3/5
f 140/1/6 120/4/6 210/3/6
f 196/2/4 197/1/4 115/4/4
f 127/1/5 114/4/5 110/3/5
f 175/1/4 113/4/4 109/3/4
f 191/1/5 118/4/5 129/3/5
f 198/1/2 119/4/2 211/3/2
f 129/1/3 118/4/3 212/3/3
f 177/1/1 117/4/1 209/3/1
f 135/1/3 129/4/3 213/3/3
f 199/1/5 129/4/5 135/3/5
f 133/2/5 134/1/5 127/4/5
f 117/1/6 130/4/6 214/3/6
f 133/1/5 125/4/5 121/3/5
f 109/2/4 113/1/4 128/4/4
f 109/1/5 126/4/5 123/3/5
f 200/1/4 122/4/4 103/3/4
f 132/1/6 124/4/6 152/3/6
f 103/1/3 122/4/3 153/3/3
f 105/1/6 132/4/6 154/3/6
f 111/1/5 133/4/5 131/3/5
f 111/2/5 115/1/5 134/4/5
f 201/1/5 135/4/5 119/3/5
f 119/1/3 135/4/3 215/3/3
f 130/1/6 140/4/6 216/3/6
f 128/1/4 139/4/4 138/3/4
f 126/1/5 138/4/5 137/3/5
f 202/1/4 136/4/4 122/3/4
f 122/1/3 136/4/3 155/3/3
f 146/1/3 148/4/3 131/3/3
f 144/1/6 147/4/6 137/3/6
f 142/1/3 146/4/3 121/3/3
f 147/1/6 145/4/6 123/3/6
f 145/1/6 141/4/6 102/3/6
f 183/1/2 144/4/2 106/3/2
f 148/1/3 143/4/3 108/3/3
f 203/1/1 142/4/1 104/3/1
f 153/1/3 155/4/3 148/3/3
f 151/1/6 154/4/6 147/3/6
f 149/1/3 153/4/3 146/3/3
f 159/1/4 160/4/4 154/3/4
f 152/1/6 156/4/6 141/3/6
f 185/1/2 151/4/2 144/3/2
f 155/1/3 150/4/3 143/3/3
f 204/1/1 149/4/1 142/3/1
f 163/1/3 164/4/3 160/3/3
f 160/1/2 158/4/2 147/3/2
f 157/1/1 159/4/1 152/3/1
f 158/1/5 157/4/5 145/3/5
f 167/1/4 168/4/4 164/3/4
f 160/2/3 164/1/3 162/4/3
f 161/1/3 163/4/3 159/3/3
f 158/2/5 162/1/5 161/4/5
f 168/1/6 167/4/6 165/3/6
f 168/1/2 166/4/2 162/3/2
f 165/1/1 167/4/1 163/3/1
f 166/1/5 165/4/5 161/3/5
f 156/1/1 186/4/1 184/3/1
f 193/1/2 185/4/2 183/3/2
f 141/1/1 184/4/1 169/3/1
f 192/1/2 183/4/2 171/3/2
f 132/1/4 182/4/4 180/3/4
f 140/1/5 181/4/5 178/3/5
f 124/1/4 180/4/4 170/3/4
f 130/1/5 179/4/5 181/3/5
f 191/1/1 177/4/1 217/3/1
f 120/1/2 178/4/2 218/3/2
f 117/1/5 177/4/5 179/3/5
f 190/1/4 175/4/4 173/3/4
f 112/2/4 116/1/4 176/4/4
f 189/1/5 173/4/5 169/3/5
f 112/1/5 174/4/5 171/3/5
f 105/1/4 172/4/4 182/3/4
f 188/1/2 172/4/2 185/3/2
f 101/1/1 170/4/1 186/3/1
f 107/1/2 188/4/2 193/3/2
f 110/1/5 189/4/5 187/3/5
f 114/1/4 190/4/4 189/3/4
f 118/1/1 191/4/1 219/3/1
f 143/1/2 192/4/2 195/3/2
f 150/1/2 193/4/2 192/3/2
f 186/1/1 204/4/1 203/3/1
f 184/1/1 203/4/1 187/3/1
f 205/1/3 207/4/3 202/3/3
f 181/1/5 201/4/5 198/3/5
f 180/1/4 200/4/4 194/3/4
f 179/1/5 199/4/5 201/3/5
f 178/1/2 198/4/2 220/3/2
f 177/1/5 191/4/5 199/3/5
f 174/2/4 176/1/4 197/4/4
f 174/1/5 196/4/5 195/3/5
f 172/1/4 188/4/4 202/3/4
f 170/1/1 194/4/1 204/3/1
f 208/1/4 207/4/4 205/3/4
f 208/1/6 206/4/6 180/3/6
f 207/1/2 208/4/2 182/3/2
f 206/1/1 205/4/1 200/3/1
f 230/2/5 233/1/5 235/4/5
f 212/1/1 219/4/1 231/3/1
f 210/1/2 218/4/2 230/3/2
f 219/1/1 217/4/1 229/3/1
f 214/1/6 216/4/6 228/3/6
f 211/1/3 215/4/3 227/3/3
f 209/1/6 214/4/6 226/3/6
f 215/1/3 213/4/3 225/3/3
f 217/1/1 209/4/1 221/3/1
f 213/1/3 212/4/3 224/3/3
f 220/1/2 211/4/2 223/3/2
f 216/1/6 210/4/6 222/3/6
f 228/1/6 222/4/6 116/3/6
f 232/1/2 223/4/2 115/3/2
f 225/1/3 224/4/3 114/3/3
f 229/1/1 221/4/1 113/3/1
f 227/1/3 225/4/3 127/3/3
f 221/1/6 226/4/6 128/3/6
f 223/1/3 227/4/3 134/3/3
f 226/1/6 228/4/6 139/3/6
f 231/1/1 229/4/1 175/3/1
f 222/1/2 230/4/2 176/3/2
f 224/1/1 231/4/1 190/3/1
f 230/1/2 232/4/2 197/3/2
f 234/1/2 236/4/2 235/3/2
f 236/1/4 234/4/4 218/3/4
f 235/1/9 236/4/9 220/3/9
f 234/1/10 233/4/10 230/3/10
f 76/4/1 149/1/1 66/3/1
f 57/4/2 25/1/2 44/3/2
f 26/4/3 28/1/3 12/3/3
f 74/4/4 136/1/4 60/3/4
f 17/4/5 4/1/5 18/3/5
f 18/4/4 6/1/4 19/3/4
f 67/4/5 108/1/5 68/3/5
f 41/4/5 2/1/5 45/3/5
f 84/4/3 82/1/3 20/3/3
f 69/3/4 68/4/4 115/2/4
f 45/4/4 5/1/4 47/3/4
f 71/4/5 129/1/5 63/3/5
f 88/4/2 211/1/2 70/3/2
f 85/4/1 81/1/1 49/3/1
f 73/4/5 135/1/5 71/3/5
f 81/4/3 83/1/3 9/3/3
f 7/3/4 5/4/4 14/2/4
f 2/4/5 11/1/5 5/3/5
f 66/4/4 103/1/4 72/3/4
f 27/4/3 26/1/3 16/3/3
f 25/4/3 27/1/3 3/3/3
f 70/4/5 119/1/5 73/3/5
f 83/4/3 84/1/3 15/3/3
f 13/4/4 18/1/4 14/3/4
f 11/4/5 17/1/5 13/3/5
f 72/4/4 122/1/4 74/3/4
f 4/4/3 17/1/3 22/3/3
f 17/4/3 11/1/3 24/3/3
f 11/4/3 2/1/3 23/3/3
f 43/4/2 4/1/2 55/3/2
f 59/4/1 104/1/1 75/3/1
f 22/4/3 24/1/3 25/3/3
f 26/4/4 27/1/4 31/3/4
f 23/4/3 21/1/3 26/3/3
f 55/4/2 22/1/2 57/3/2
f 75/4/1 142/1/1 76/3/1
f 31/4/6 32/1/6 35/3/6
f 27/4/2 24/1/2 32/3/2
f 23/4/1 26/1/1 29/3/1
f 24/4/5 23/1/5 30/3/5
f 35/4/4 36/1/4 39/3/4
f 36/3/6 32/4/6 34/2/6
f 29/4/6 31/1/6 33/3/6
f 34/3/5 30/4/5 33/2/5
f 38/4/3 37/1/3 40/3/3
f 36/4/2 34/1/2 40/3/2
f 33/4/1 35/1/1 37/3/1
f 34/4/5 33/1/5 38/3/5
f 21/4/1 56/1/1 28/3/1
f 64/4/2 55/1/2 65/3/2
f 2/4/1 41/1/1 21/3/1
f 67/4/2 43/1/2 64/3/2
f 12/4/4 52/1/4 16/3/4
f 10/4/5 50/1/5 20/3/5
f 1/4/4 42/1/4 12/3/4
f 20/4/5 53/1/5 15/3/5
f 87/4/1 85/1/1 63/3/1
f 82/4/2 86/1/2 10/3/2
f 15/4/5 51/1/5 9/3/5
f 61/4/4 45/1/4 62/3/4
f 8/3/4 6/4/4 48/2/4
f 59/4/5 41/1/5 61/3/5
f 4/4/5 43/1/5 6/3/5
f 16/4/4 54/1/4 3/3/4
f 65/4/2 57/1/2 60/3/2
f 28/4/1 58/1/1 1/3/1
f 150/4/2 65/1/2 107/3/2
f 104/4/5 59/1/5 110/3/5
f 110/4/4 61/1/4 114/3/4
f 212/4/1 87/1/1 118/3/1
f 108/4/2 67/1/2 143/3/2
f 143/4/2 64/1/2 150/3/2
f 56/4/1 75/1/1 58/3/1
f 41/4/1 59/1/1 56/3/1
f 72/4/6 74/1/6 77/3/6
f 50/4/5 70/1/5 53/3/5
f 42/4/4 66/1/4 52/3/4
f 53/4/5 73/1/5 51/3/5
f 86/4/2 88/1/2 50/3/2
f 51/4/5 71/1/5 49/3/5
f 48/3/4 46/4/4 69/2/4
f 43/4/5 67/1/5 46/3/5
f 54/4/4 74/1/4 44/3/4
f 58/4/1 76/1/1 42/3/1
f 78/4/4 77/1/4 80/3/4
f 54/4/3 52/1/3 80/3/3
f 74/4/2 54/1/2 79/3/2
f 52/4/1 72/1/1 78/3/1
f 97/3/5 94/4/5 99/2/5
f 224/4/1 95/1/1 212/3/1
f 90/4/2 94/1/2 82/3/2
f 95/4/1 93/1/1 87/3/1
f 91/4/3 92/1/3 83/3/3
f 89/4/3 91/1/3 81/3/3
f 93/4/1 89/1/1 85/3/1
f 96/4/2 223/1/2 88/3/2
f 92/4/3 90/1/3 84/3/3
f 19/4/3 8/1/3 92/3/3
f 69/4/2 115/1/2 96/3/2
f 47/4/1 7/1/1 93/3/1
f 7/4/3 14/1/3 89/3/3
f 14/4/3 19/1/3 91/3/3
f 62/4/1 47/1/1 95/3/1
f 8/4/2 48/1/2 90/3/2
f 114/4/1 62/1/1 224/3/1
f 48/4/2 69/1/2 94/3/2
f 97/4/2 99/1/2 98/3/2
f 88/4/4 86/1/4 100/3/4
f 96/4/7 88/1/7 99/3/7
f 86/4/8 94/1/8 98/3/8
f 204/2/1 194/1/1 149/3/1
f 155/2/3 136/1/3 150/3/3
f 185/2/2 172/1/2 151/3/2
f 152/2/6 124/1/6 156/3/6
f 202/2/4 188/1/4 136/3/4
f 137/2/5 138/1/5 106/3/5
f 138/2/4 139/1/4 112/3/4
f 195/2/5 196/1/5 108/3/5
f 121/2/5 125/1/5 104/3/5
f 169/2/5 173/1/5 102/3/5
f 216/2/6 140/1/6 210/3/6
f 111/3/4 196/2/4 115/4/4
f 125/2/5 127/1/5 110/3/5
f 173/2/4 175/1/4 109/3/4
f 199/2/5 191/1/5 129/3/5
f 220/2/2 198/1/2 211/3/2
f 213/2/3 129/1/3 212/3/3
f 217/2/1 177/1/1 209/3/1
f 215/2/3 135/1/3 213/3/3
f 201/2/5 199/1/5 135/3/5
f 125/3/5 133/2/5 127/4/5
f 209/2/6 117/1/6 214/3/6
f 131/2/5 133/1/5 121/3/5
f 126/3/4 109/2/4 128/4/4
f 102/2/5 109/1/5 123/3/5
f 194/2/4 200/1/4 103/3/4
f 154/2/6 132/1/6 152/3/6
f 149/2/3 103/1/3 153/3/3
f 151/2/6 105/1/6 154/3/6
f 108/2/5 111/1/5 131/3/5
f 133/3/5 111/2/5 134/4/5
f 198/2/5 201/1/5 119/3/5
f 211/2/3 119/1/3 215/3/3
f 214/2/6 130/1/6 216/3/6
f 126/2/4 128/1/4 138/3/4
f 123/2/5 126/1/5 137/3/5
f 200/2/4 202/1/4 122/3/4
f 153/2/3 122/1/3 155/3/3
f 121/2/3 146/1/3 131/3/3
f 106/2/6 144/1/6 137/3/6
f 104/2/3 142/1/3 121/3/3
f 137/2/6 147/1/6 123/3/6
f 123/2/6 145/1/6 102/3/6
f 171/2/2 183/1/2 106/3/2
f 131/2/3 148/1/3 108/3/3
f 187/2/1 203/1/1 104/3/1
f 146/2/3 153/1/3 148/3/3
f 144/2/6 151/1/6 147/3/6
f 142/2/3 149/1/3 146/3/3
f 152/2/4 159/1/4 154/3/4
f 145/2/6 152/1/6 141/3/6
f 183/2/2 185/1/2 144/3/2
f 148/2/3 155/1/3 143/3/3
f 203/2/1 204/1/1 142/3/1
f 159/2/3 163/1/3 160/3/3
f 154/2/2 160/1/2 147/3/2
f 145/2/1 157/1/1 152/3/1
f 147/2/5 158/1/5 145/3/5
f 163/2/4 167/1/4 164/3/4
f 158/3/3 160/2/3 162/4/3
f 157/2/3 161/1/3 159/3/3
f 157/3/4 158/2/4 161/4/4
f 166/2/6 168/1/6 165/3/6
f 164/2/2 168/1/2 162/3/2
f 161/2/1 165/1/1 163/3/1
f 162/2/5 166/1/5 161/3/5
f 141/2/1 156/1/1 184/3/1
f 192/2/2 193/1/2 183/3/2
f 102/2/1 141/1/1 169/3/1
f 195/2/2 192/1/2 171/3/2
f 124/2/4 132/1/4 180/3/4
f 120/2/5 140/1/5 178/3/5
f 101/2/4 124/1/4 170/3/4
f 140/2/5 130/1/5 181/3/5
f 219/2/1 191/1/1 217/3/1
f 210/2/2 120/1/2 218/3/2
f 130/2/5 117/1/5 179/3/5
f 189/2/4 190/1/4 173/3/4
f 174/3/4 112/2/4 176/4/4
f 187/2/5 189/1/5 169/3/5
f 106/2/5 112/1/5 171/3/5
f 132/2/4 105/1/4 182/3/4
f 193/2/2 188/1/2 185/3/2
f 156/2/1 101/1/1 186/3/1
f 150/2/2 107/1/2 193/3/2
f 104/2/5 110/1/5 187/3/5
f 110/2/4 114/1/4 189/3/4
f 212/2/1 118/1/1 219/3/1
f 108/2/2 143/1/2 195/3/2
f 143/2/2 150/1/2 192/3/2
f 184/2/1 186/1/1 203/3/1
f 169/2/1 184/1/1 187/3/1
f 200/2/3 205/1/3 202/3/3
f 178/2/5 181/1/5 198/3/5
f 170/2/4 180/1/4 194/3/4
f 181/2/5 179/1/5 201/3/5
f 218/2/2 178/1/2 220/3/2
f 179/2/5 177/1/5 199/3/5
f 196/3/4 174/2/4 197/4/4
f 171/2/5 174/1/5 195/3/5
f 182/2/4 172/1/4 202/3/4
f 186/2/1 170/1/1 204/3/1
f 206/2/4 208/1/4 205/3/4
f 182/2/6 208/1/6 180/3/6
f 202/2/2 207/1/2 182/3/2
f 180/2/1 206/1/1 200/3/1
f 232/3/5 230/2/5 235/4/5
f 224/2/1 212/1/1 231/3/1
f 222/2/2 210/1/2 230/3/2
f 231/2/1 219/1/1 229/3/1
f 226/2/6 214/1/6 228/3/6
f 223/2/3 211/1/3 227/3/3
f 221/2/6 209/1/6 226/3/6
f 227/2/3 215/1/3 225/3/3
f 229/2/1 217/1/1 221/3/1
f 225/2/3 213/1/3 224/3/3
f 232/2/2 220/1/2 223/3/2
f 228/2/6 216/1/6 222/3/6
f 139/2/6 228/1/6 116/3/6
f 197/2/2 232/1/2 115/3/2
f 127/2/3 225/1/3 114/3/3
f 175/2/1 229/1/1 113/3/1
f 134/2/3 227/1/3 127/3/3
f 113/2/6 221/1/6 128/3/6
f 115/2/3 223/1/3 134/3/3
f 128/2/6 226/1/6 139/3/6
f 190/2/1 231/1/1 175/3/1
f 116/2/2 222/1/2 176/3/2
f 114/2/1 224/1/1 190/3/1
f 176/2/2 230/1/2 197/3/2
f 233/2/2 234/1/2 235/3/2
f 220/2/4 236/1/4 218/3/4
f 232/2/9 235/1/9 220/3/9
f 218/2/10 234/1/10 230/3/10
